<?xml version="1.0" encoding="UTF-8" standalone="no"?>
<!-- Created with Inkscape (http://www.inkscape.org/) -->

<svg
   xmlns:dc="http://purl.org/dc/elements/1.1/"
   xmlns:cc="http://creativecommons.org/ns#"
   xmlns:rdf="http://www.w3.org/1999/02/22-rdf-syntax-ns#"
   xmlns:svg="http://www.w3.org/2000/svg"
   xmlns="http://www.w3.org/2000/svg"
   xmlns:sodipodi="http://sodipodi.sourceforge.net/DTD/sodipodi-0.dtd"
   xmlns:inkscape="http://www.inkscape.org/namespaces/inkscape"
   width="512mm"
   height="512mm"
   viewBox="0 0 512 512"
   version="1.1"
   id="svg8"
   sodipodi:docname="logo2_dark.svg"
   inkscape:version="0.92.5 (2060ec1f9f, 2020-04-08)">
  <defs
     id="defs2" />
  <sodipodi:namedview
     id="base"
     pagecolor="#ffffff"
     bordercolor="#666666"
     borderopacity="1.0"
     inkscape:pageopacity="0.0"
     inkscape:pageshadow="2"
     inkscape:zoom="0.35355339"
     inkscape:cx="-966.13176"
     inkscape:cy="1258.5731"
     inkscape:document-units="mm"
     inkscape:current-layer="layer1"
     showgrid="false"
     inkscape:window-width="5120"
     inkscape:window-height="2752"
     inkscape:window-x="2880"
     inkscape:window-y="1137"
     inkscape:window-maximized="1" />
  <metadata
     id="metadata5">
    <rdf:RDF>
      <cc:Work
         rdf:about="">
        <dc:format>image/svg+xml</dc:format>
        <dc:type
           rdf:resource="http://purl.org/dc/dcmitype/StillImage" />
        <dc:title></dc:title>
      </cc:Work>
    </rdf:RDF>
  </metadata>
  <g
     inkscape:label="Layer 1"
     inkscape:groupmode="layer"
     id="layer1"
     transform="translate(0,215)">
    <path
       style="opacity:1;vector-effect:none;fill:#ffffff;fill-opacity:1;stroke:none;stroke-width:97.30204773;stroke-linecap:butt;stroke-linejoin:miter;stroke-miterlimit:4;stroke-dasharray:none;stroke-dashoffset:0;stroke-opacity:1"
       d="M 967.55859 69.009766 A 881.57936 898.54992 0 0 0 85.980469 967.55859 A 881.57936 898.54992 0 0 0 967.55859 1866.1094 A 881.57936 898.54992 0 0 0 1849.1387 967.55859 A 881.57936 898.54992 0 0 0 967.55859 69.009766 z M 967.55859 163.07227 A 789.29281 804.48681 0 0 1 1756.8516 967.55859 A 789.29281 804.48681 0 0 1 967.55859 1772.0449 A 789.29281 804.48681 0 0 1 178.26562 967.55859 A 789.29281 804.48681 0 0 1 967.55859 163.07227 z M 967.55859 372 A 584.31098 595.55908 0 0 0 383.24805 967.55859 A 584.31098 595.55908 0 0 0 967.55859 1563.1172 A 584.31098 595.55908 0 0 0 1551.8691 967.55859 A 584.31098 595.55908 0 0 0 967.55859 372 z M 1146.1875 542.39648 L 1379.9395 780.64844 L 1236.2891 927.06445 L 1002.5371 688.8125 L 1146.1875 542.39648 z "
       transform="matrix(0.26458333,0,0,0.26458333,0,-215)"
       id="path815" />
  </g>
</svg>
